<svg width="41" height="40" viewBox="0 0 41 40" fill="none" xmlns="http://www.w3.org/2000/svg">
<path fill-rule="evenodd" clip-rule="evenodd" d="M20.5 0C9.17375 0 0 9.17375 0 20.5C0 29.5712 5.86813 37.2331 14.0169 39.9494C15.0419 40.1287 15.4262 39.5137 15.4262 38.9756C15.4262 38.4887 15.4006 36.8744 15.4006 35.1575C10.25 36.1056 8.9175 33.9019 8.5075 32.7487C8.27688 32.1594 7.2775 30.34 6.40625 29.8531C5.68875 29.4687 4.66375 28.5206 6.38062 28.495C7.995 28.4694 9.14813 29.9812 9.5325 30.5962C11.3775 33.6969 14.3244 32.8256 15.5031 32.2875C15.6825 30.955 16.2206 30.0581 16.81 29.5456C12.2488 29.0331 7.4825 27.265 7.4825 19.4237C7.4825 17.1944 8.27688 15.3494 9.58375 13.9144C9.37875 13.4019 8.66125 11.3006 9.78875 8.48187C9.78875 8.48187 11.5056 7.94375 15.4262 10.5831C17.0662 10.1219 18.8088 9.89125 20.5513 9.89125C22.2938 9.89125 24.0363 10.1219 25.6763 10.5831C29.5969 7.91813 31.3138 8.48187 31.3138 8.48187C32.4413 11.3006 31.7238 13.4019 31.5188 13.9144C32.8256 15.3494 33.62 17.1687 33.62 19.4237C33.62 27.2906 28.8281 29.0331 24.2669 29.5456C25.01 30.1862 25.6506 31.4162 25.6506 33.3381C25.6506 36.08 25.625 38.2837 25.625 38.9756C25.625 39.5137 26.0094 40.1544 27.0344 39.9494C31.1039 38.5754 34.6402 35.9599 37.1454 32.4709C39.6507 28.982 40.9988 24.7952 41 20.5C41 9.17375 31.8263 0 20.5 0Z" fill="white"/>
</svg>
