<svg width="203" height="71" viewBox="0 0 203 71" fill="none" xmlns="http://www.w3.org/2000/svg">
<path d="M28.1931 9.05432C25.4403 9.05432 23.2854 9.47176 21.7285 10.3066C20.1716 11.1415 19.4834 12.5292 19.6639 14.4697L21.0854 28.3466C21.1531 28.9107 21.187 29.4636 21.187 30.0051C21.187 32.2164 20.6454 33.92 19.5624 35.1159C18.5018 36.2892 16.8998 37.0677 14.7562 37.4512C16.9449 37.8348 18.5583 38.5907 19.5962 39.7189C20.6567 40.8246 21.187 42.4943 21.187 44.7282C21.187 45.2923 21.1531 45.9015 21.0854 46.5559L19.6639 60.4328C19.6413 60.5682 19.6301 60.76 19.6301 61.0082C19.6301 64.2348 22.4844 65.8482 28.1931 65.8482V70.3159C24.109 70.3159 20.7808 69.6164 18.2085 68.2174C15.6588 66.841 14.3839 64.4943 14.3839 61.1774C14.3839 60.5682 14.4065 60.0943 14.4516 59.7559L15.8054 46.8943C15.8506 46.5784 15.8731 46.1271 15.8731 45.5405C15.8731 44.2092 15.5685 43.1261 14.9593 42.2912C14.3501 41.4564 13.2895 40.8246 11.7777 40.3959C10.2885 39.9446 8.2239 39.7189 5.5839 39.7189V35.1836C8.2239 35.1836 10.2885 34.9692 11.7777 34.5405C13.2895 34.1118 14.3501 33.48 14.9593 32.6451C15.5685 31.8102 15.8731 30.7384 15.8731 29.4297C15.8731 28.843 15.8506 28.3918 15.8054 28.0759L14.4516 15.1466C14.4065 14.8082 14.3839 14.3343 14.3839 13.7251C14.3839 10.4082 15.6588 8.0615 18.2085 6.68509C20.7808 5.28612 24.109 4.58663 28.1931 4.58663V9.05432Z" fill="white"/>
<path d="M174.26 4.58469C178.344 4.58469 181.64 5.28387 184.148 6.68223C186.68 8.05803 187.896 10.4037 187.798 13.7191C187.78 14.3281 187.744 14.8017 187.689 15.1401L185.952 28.0636C185.892 28.5598 185.858 28.932 185.851 29.1801C185.792 31.1874 186.537 32.6872 188.087 33.6796C189.637 34.672 192.263 35.1682 195.963 35.1682L195.829 39.7016C192.151 39.7016 189.496 40.2091 187.864 41.224C186.255 42.2164 185.42 43.7275 185.36 45.7574C185.353 46.0055 185.364 46.3776 185.395 46.8738L186.368 59.7297C186.403 60.0681 186.412 60.5417 186.394 61.1507C186.295 64.4661 184.94 66.8118 182.327 68.1876C179.735 69.5859 176.398 70.2851 172.314 70.2851L172.446 65.8194C178.471 65.8194 181.367 64.015 181.136 60.4064L180.125 46.5355C180.077 45.8815 180.061 45.2725 180.077 44.7086C180.145 42.4307 180.759 40.7504 181.919 39.6678C183.079 38.5852 184.928 37.8634 187.466 37.5026C185.019 37.0966 183.226 36.2959 182.088 35.1005C180.973 33.9052 180.448 32.191 180.514 29.9582C180.53 29.4394 180.579 28.8981 180.664 28.3343L182.496 14.4634C182.523 14.3281 182.54 14.1364 182.547 13.8883C182.599 12.1516 181.857 10.9111 180.322 10.1669C178.81 9.42257 176.745 9.05042 174.127 9.05042L174.26 4.58469Z" fill="white"/>
<path d="M53.2813 35.7375C53.2813 39.213 52.4813 41.6264 50.8813 42.9775C49.2902 44.3286 47.3257 45.0042 44.9879 45.0042H40.7746V26.6442H44.6946C46.3302 26.6442 47.7746 26.893 49.0279 27.3908C50.2813 27.8797 51.3035 28.7953 52.0946 30.1375C52.8857 31.4797 53.2813 33.3464 53.2813 35.7375ZM50.8146 35.7375C50.8146 33.7464 50.5435 32.2219 50.0013 31.1642C49.459 30.1064 48.7835 29.4042 47.9746 29.0575C47.1746 28.7108 46.2635 28.5375 45.2413 28.5375H43.0813V43.1508H45.2679C46.859 43.1508 48.179 42.6086 49.2279 41.5242C50.2857 40.4308 50.8146 38.5019 50.8146 35.7375ZM58.984 38.7775C59.0196 39.8264 59.224 40.7019 59.5974 41.4042C59.9707 42.0975 60.4596 42.613 61.064 42.9508C61.6685 43.2797 62.344 43.4442 63.0907 43.4442C63.784 43.4442 64.4196 43.3419 64.9974 43.1375C65.584 42.933 66.1974 42.613 66.8374 42.1775L67.8907 43.6575C67.2329 44.173 66.4774 44.5775 65.624 44.8708C64.7796 45.1642 63.9263 45.3108 63.064 45.3108C61.7218 45.3108 60.5663 45.0086 59.5974 44.4042C58.6285 43.7997 57.8907 42.9464 57.384 41.8442C56.8863 40.7419 56.6374 39.4619 56.6374 38.0042C56.6374 36.5908 56.8907 35.3286 57.3974 34.2175C57.904 33.1064 58.6196 32.2397 59.544 31.6175C60.4685 30.9864 61.544 30.6708 62.7707 30.6708C63.944 30.6708 64.9574 30.9464 65.8107 31.4975C66.6729 32.0486 67.3307 32.8442 67.784 33.8842C68.2463 34.9153 68.4774 36.1375 68.4774 37.5508C68.4774 37.9597 68.4596 38.3686 68.424 38.7775H58.984ZM62.7974 32.5108C61.7129 32.5108 60.8285 32.893 60.144 33.6575C59.4685 34.413 59.0863 35.5419 58.9974 37.0442H66.3174C66.2907 35.5686 65.9663 34.4442 65.344 33.6708C64.7218 32.8975 63.8729 32.5108 62.7974 32.5108ZM82.6068 30.9642H84.9268L79.8201 45.0042H77.2201L72.1535 30.9642H74.5268L78.5935 42.9642L82.6068 30.9642Z" fill="#FF6F4E"/>
<path d="M100.923 39.7642C100.923 41.0264 100.598 42.0486 99.9495 42.8308C99.3007 43.6042 98.4607 44.1597 97.4295 44.4975C96.3984 44.8353 95.2695 45.0042 94.0429 45.0042H89.1095V26.6442H93.6295C95.4873 26.6442 97.034 27.0042 98.2695 27.7242C99.5051 28.4353 100.123 29.6175 100.123 31.2708C100.123 32.373 99.7984 33.2619 99.1495 33.9375C98.5007 34.613 97.6873 35.0619 96.7095 35.2842C99.5184 35.7642 100.923 37.2575 100.923 39.7642ZM97.7495 31.3908C97.7495 29.4708 96.5495 28.5108 94.1496 28.5108H91.4162V34.4575H94.3762C95.4873 34.4575 96.3273 34.213 96.8962 33.7242C97.4651 33.2264 97.7495 32.4486 97.7495 31.3908ZM98.4829 39.8442C98.4829 38.5553 98.1273 37.653 97.4162 37.1375C96.714 36.6219 95.7584 36.3642 94.5496 36.3642H91.4162V43.0975H94.4429C95.5718 43.0975 96.5273 42.8619 97.3096 42.3908C98.0918 41.9197 98.4829 41.0708 98.4829 39.8442ZM110.532 24.3908C111.021 24.3908 111.417 24.5419 111.719 24.8442C112.021 25.1375 112.172 25.5064 112.172 25.9508C112.172 26.413 112.021 26.7953 111.719 27.0975C111.417 27.3997 111.021 27.5508 110.532 27.5508C110.061 27.5508 109.675 27.3997 109.372 27.0975C109.07 26.7864 108.919 26.4042 108.919 25.9508C108.919 25.5064 109.07 25.1375 109.372 24.8442C109.675 24.5419 110.061 24.3908 110.532 24.3908ZM105.879 30.9642H112.319V43.2308H116.279V45.0042H105.746V43.2308H110.079V32.7375H105.879V30.9642ZM126.675 41.5375C126.675 42.1953 126.88 42.6797 127.288 42.9908C127.706 43.293 128.275 43.4442 128.995 43.4442C129.751 43.4442 130.537 43.2797 131.355 42.9508L131.955 44.5908C131.528 44.8042 131.031 44.9775 130.462 45.1108C129.893 45.2442 129.28 45.3108 128.622 45.3108C127.795 45.3108 127.062 45.1553 126.422 44.8442C125.791 44.533 125.302 44.0842 124.955 43.4975C124.608 42.9108 124.435 42.2175 124.435 41.4175V27.0842H120.128V25.3108H126.675V41.5375ZM142.671 41.5375C142.671 42.1953 142.876 42.6797 143.284 42.9908C143.702 43.293 144.271 43.4442 144.991 43.4442C145.747 43.4442 146.533 43.2797 147.351 42.9508L147.951 44.5908C147.524 44.8042 147.027 44.9775 146.458 45.1108C145.889 45.2442 145.276 45.3108 144.618 45.3108C143.791 45.3108 143.058 45.1553 142.418 44.8442C141.787 44.533 141.298 44.0842 140.951 43.4975C140.604 42.9108 140.431 42.2175 140.431 41.4175V27.0842H136.124V25.3108H142.671V41.5375ZM159.947 45.0975C159.583 46.1464 159.147 47.053 158.641 47.8175C158.143 48.5819 157.485 49.213 156.667 49.7108C155.858 50.2175 154.863 50.5286 153.681 50.6442L153.334 48.8575C154.276 48.6975 155.027 48.4575 155.587 48.1375C156.156 47.8175 156.601 47.413 156.921 46.9242C157.241 46.4353 157.538 45.7953 157.814 45.0042H157.067L152.161 30.9642H154.561L158.587 43.2975L162.561 30.9642H164.881L159.947 45.0975Z" fill="white"/>
</svg>
