<svg width="110" height="44" viewBox="0 0 110 44" fill="none" xmlns="http://www.w3.org/2000/svg">
<path d="M16.7048 5.79846C15.1616 5.79846 13.9536 6.03248 13.0807 6.50051C12.2079 6.96855 11.8221 7.7465 11.9233 8.83436L12.7202 16.6138C12.7582 16.9301 12.7771 17.24 12.7771 17.5436C12.7771 18.7832 12.4736 19.7383 11.8664 20.4087C11.2718 21.0665 10.3737 21.5029 9.17202 21.7179C10.399 21.933 11.3035 22.3568 11.8854 22.9892C12.4799 23.6091 12.7771 24.5451 12.7771 25.7974C12.7771 26.1137 12.7582 26.4552 12.7202 26.8221L11.9233 34.6015C11.9107 34.6774 11.9043 34.785 11.9043 34.9241C11.9043 36.733 13.5045 37.6374 16.7048 37.6374V40.1421C14.4153 40.1421 12.5495 39.7499 11.1074 38.9656C9.678 38.194 8.9633 36.8785 8.9633 35.019C8.9633 34.6774 8.97595 34.4118 9.00125 34.2221L9.76022 27.0118C9.78552 26.8347 9.79817 26.5817 9.79817 26.2528C9.79817 25.5065 9.6274 24.8993 9.28587 24.4313C8.94433 23.9632 8.3498 23.6091 7.50228 23.3687C6.6674 23.1157 5.50997 22.9892 4.02997 22.9892V20.4467C5.50997 20.4467 6.6674 20.3265 7.50228 20.0862C8.3498 19.8458 8.94433 19.4916 9.28587 19.0236C9.6274 18.5556 9.79817 17.9547 9.79817 17.221C9.79817 16.8921 9.78552 16.6391 9.76022 16.4621L9.00125 9.21385C8.97595 9.0241 8.9633 8.75846 8.9633 8.41692C8.9633 6.55744 9.678 5.24188 11.1074 4.47026C12.5495 3.68598 14.4153 3.29385 16.7048 3.29385V5.79846Z" fill="#455A64"/>
<path d="M94.1871 2.29309C96.4767 2.29309 98.3261 2.6851 99.7354 3.46912C101.158 4.24049 101.845 5.55561 101.797 7.41449C101.789 7.75592 101.769 8.02147 101.739 8.21115L100.794 15.457C100.762 15.7352 100.744 15.9438 100.74 16.0829C100.712 17.2084 101.133 18.0493 102.004 18.6057C102.875 19.1621 104.348 19.4403 106.423 19.4403L106.357 21.982C104.296 21.982 102.808 22.2665 101.896 22.8356C100.996 23.392 100.531 24.2392 100.502 25.3773C100.499 25.5164 100.506 25.7251 100.524 26.0033L101.098 33.2112C101.119 33.4008 101.125 33.6664 101.116 34.0078C101.068 35.8667 100.313 37.1818 98.8517 37.9532C97.4022 38.7372 95.5326 39.1292 93.2431 39.1292L93.3072 36.6254C96.6847 36.6254 98.3045 35.6138 98.1666 33.5905L97.5689 25.8136C97.5404 25.4469 97.5302 25.1054 97.5383 24.7893C97.571 23.5121 97.9114 22.57 98.5594 21.963C99.2074 21.3561 100.242 20.9514 101.664 20.7491C100.291 20.5215 99.2846 20.0726 98.644 19.4023C98.0161 18.7321 97.7181 17.7711 97.7502 16.5192C97.7577 16.2283 97.7844 15.9249 97.8305 15.6087L98.8267 7.83179C98.8413 7.75592 98.8504 7.64843 98.8539 7.50933C98.8789 6.53563 98.4603 5.84014 97.5982 5.42284C96.7487 5.00554 95.5903 4.79689 94.1229 4.79689L94.1871 2.29309Z" fill="#455A64"/>
<path d="M28.2441 20.0103C28.2441 21.8817 27.8134 23.1812 26.9518 23.9087C26.0951 24.6362 25.0373 25 23.7785 25H21.5098V15.1138H23.6205C24.5012 15.1138 25.279 15.2479 25.9539 15.5159C26.6288 15.7791 27.1792 16.2721 27.6052 16.9949C28.0311 17.7176 28.2441 18.7227 28.2441 20.0103ZM26.9159 20.0103C26.9159 18.9381 26.77 18.1173 26.478 17.5477C26.186 16.9781 25.8223 16.6 25.3867 16.4133C24.9559 16.2267 24.4653 16.1333 23.9149 16.1333H22.7518V24.0021H23.9293C24.786 24.0021 25.4968 23.7101 26.0616 23.1262C26.6311 22.5374 26.9159 21.4988 26.9159 20.0103ZM31.3149 21.6472C31.334 22.212 31.4441 22.6834 31.6451 23.0615C31.8461 23.4349 32.1094 23.7125 32.4349 23.8944C32.7603 24.0715 33.1241 24.16 33.5261 24.16C33.8995 24.16 34.2417 24.105 34.5528 23.9949C34.8687 23.8848 35.199 23.7125 35.5436 23.4779L36.1108 24.2749C35.7566 24.5525 35.3497 24.7703 34.8902 24.9282C34.4355 25.0862 33.9761 25.1651 33.5118 25.1651C32.789 25.1651 32.1668 25.0024 31.6451 24.6769C31.1234 24.3515 30.7261 23.892 30.4533 23.2985C30.1853 22.705 30.0513 22.0157 30.0513 21.2308C30.0513 20.4697 30.1877 19.7901 30.4605 19.1918C30.7333 18.5935 31.1186 18.1268 31.6164 17.7918C32.1142 17.452 32.6933 17.2821 33.3538 17.2821C33.9856 17.2821 34.5313 17.4304 34.9908 17.7272C35.455 18.0239 35.8092 18.4523 36.0533 19.0123C36.3022 19.5675 36.4267 20.2256 36.4267 20.9867C36.4267 21.2068 36.4171 21.427 36.3979 21.6472H31.3149ZM33.3682 18.2728C32.7843 18.2728 32.308 18.4786 31.9395 18.8903C31.5757 19.2971 31.3699 19.905 31.322 20.7138H35.2636C35.2492 19.9193 35.0745 19.3138 34.7395 18.8974C34.4044 18.481 33.9473 18.2728 33.3682 18.2728ZM44.0348 17.44H45.284L42.5343 25H41.1343L38.4061 17.44H39.684L41.8738 23.9015L44.0348 17.44Z" fill="#F7542E"/>
<path d="M53.8973 22.1785C53.8973 22.8581 53.7226 23.4085 53.3732 23.8297C53.0238 24.2462 52.5715 24.5453 52.0163 24.7272C51.4611 24.9091 50.8532 25 50.1927 25H47.5363V15.1138H49.9701C50.9705 15.1138 51.8033 15.3077 52.4686 15.6954C53.1339 16.0783 53.4665 16.7149 53.4665 17.6051C53.4665 18.1986 53.2918 18.6773 52.9424 19.041C52.593 19.4048 52.1551 19.6465 51.6286 19.7662C53.1411 20.0246 53.8973 20.8287 53.8973 22.1785ZM52.1886 17.6697C52.1886 16.6359 51.5424 16.119 50.2501 16.119H48.7783V19.321H50.3722C50.9705 19.321 51.4228 19.1894 51.7291 18.9262C52.0354 18.6581 52.1886 18.2393 52.1886 17.6697ZM52.5835 22.2215C52.5835 21.5275 52.392 21.0417 52.0091 20.7641C51.631 20.4865 51.1165 20.3477 50.4655 20.3477H48.7783V23.9733H50.4081C51.0159 23.9733 51.5305 23.8465 51.9517 23.5928C52.3729 23.3391 52.5835 22.8821 52.5835 22.2215ZM59.0716 13.9005C59.3349 13.9005 59.5479 13.9819 59.7106 14.1446C59.8733 14.3026 59.9547 14.5012 59.9547 14.7405C59.9547 14.9894 59.8733 15.1952 59.7106 15.3579C59.5479 15.5207 59.3349 15.6021 59.0716 15.6021C58.8179 15.6021 58.6097 15.5207 58.447 15.3579C58.2843 15.1904 58.2029 14.9846 58.2029 14.7405C58.2029 14.5012 58.2843 14.3026 58.447 14.1446C58.6097 13.9819 58.8179 13.9005 59.0716 13.9005ZM56.566 17.44H60.0337V24.0451H62.166V25H56.4942V24.0451H58.8275V18.3949H56.566V17.44ZM67.7639 23.1333C67.7639 23.4875 67.874 23.7484 68.0941 23.9159C68.3191 24.0786 68.6254 24.16 69.0131 24.16C69.4199 24.16 69.8435 24.0715 70.2839 23.8944L70.607 24.7774C70.3772 24.8923 70.1092 24.9856 69.8029 25.0574C69.4965 25.1292 69.1663 25.1651 68.8121 25.1651C68.367 25.1651 67.9721 25.0814 67.6275 24.9138C67.2876 24.7463 67.0244 24.5046 66.8377 24.1887C66.6511 23.8728 66.5577 23.4995 66.5577 23.0687V15.3508H64.2388V14.3959H67.7639V23.1333ZM76.3772 23.1333C76.3772 23.4875 76.4872 23.7484 76.7074 23.9159C76.9324 24.0786 77.2387 24.16 77.6264 24.16C78.0332 24.16 78.4568 24.0715 78.8972 23.8944L79.2202 24.7774C78.9905 24.8923 78.7225 24.9856 78.4161 25.0574C78.1098 25.1292 77.7796 25.1651 77.4254 25.1651C76.9802 25.1651 76.5854 25.0814 76.2408 24.9138C75.9009 24.7463 75.6377 24.5046 75.451 24.1887C75.2643 23.8728 75.171 23.4995 75.171 23.0687V15.3508H72.852V14.3959H76.3772V23.1333ZM85.6797 25.0503C85.4834 25.615 85.2489 26.1032 84.9761 26.5149C84.708 26.9265 84.3539 27.2663 83.9135 27.5344C83.478 27.8072 82.9419 27.9747 82.3053 28.0369L82.1186 27.0749C82.626 26.9887 83.0304 26.8595 83.332 26.6872C83.6383 26.5149 83.8776 26.2971 84.0499 26.0338C84.2222 25.7706 84.3826 25.426 84.531 25H84.1289L81.4869 17.44H82.7792L84.9474 24.081L87.0869 17.44H88.3361L85.6797 25.0503Z" fill="#455A64"/>
</svg>
