<svg width="232" height="81" viewBox="0 0 232 81" fill="none" xmlns="http://www.w3.org/2000/svg">
<path d="M30.7603 8.91077C28.0075 8.91077 25.8526 9.32821 24.2957 10.1631C22.7388 10.9979 22.0506 12.3856 22.2311 14.3262L23.6526 28.2031C23.7203 28.7672 23.7542 29.32 23.7542 29.8615C23.7542 32.0728 23.2126 33.7764 22.1296 34.9723C21.0691 36.1456 19.467 36.9241 17.3234 37.3077C19.5121 37.6913 21.1255 38.4472 22.1634 39.5754C23.2239 40.681 23.7542 42.3508 23.7542 44.5846C23.7542 45.1487 23.7203 45.7579 23.6526 46.4123L22.2311 60.2892C22.2085 60.4246 22.1973 60.6164 22.1973 60.8646C22.1973 64.0913 25.0516 65.7046 30.7603 65.7046V70.1723C26.6762 70.1723 23.348 69.4728 20.7757 68.0738C18.226 66.6974 16.9511 64.3508 16.9511 61.0338C16.9511 60.4246 16.9737 59.9508 17.0188 59.6123L18.3726 46.7508C18.4178 46.4349 18.4403 45.9836 18.4403 45.3969C18.4403 44.0656 18.1357 42.9826 17.5265 42.1477C16.9173 41.3128 15.8568 40.681 14.345 40.2523C12.8557 39.801 10.7911 39.5754 8.15111 39.5754V35.04C10.7911 35.04 12.8557 34.8256 14.345 34.3969C15.8568 33.9682 16.9173 33.3364 17.5265 32.5015C18.1357 31.6667 18.4403 30.5949 18.4403 29.2862C18.4403 28.6995 18.4178 28.2482 18.3726 27.9323L17.0188 15.0031C16.9737 14.6646 16.9511 14.1908 16.9511 13.5815C16.9511 10.2646 18.226 7.91795 20.7757 6.54154C23.348 5.14257 26.6762 4.44308 30.7603 4.44308V8.91077Z" fill="#455A64"/>
<path d="M200.692 4.44113C204.776 4.44113 208.073 5.14031 210.581 6.53867C213.112 7.91448 214.329 10.2601 214.231 13.5756C214.213 14.1846 214.176 14.6582 214.121 14.9965L212.385 27.9201C212.325 28.4163 212.291 28.7884 212.284 29.0365C212.224 31.0438 212.97 32.5437 214.52 33.5361C216.07 34.5285 218.695 35.0246 222.396 35.0246L222.261 39.558C218.584 39.558 215.928 40.0655 214.296 41.0805C212.687 42.0728 211.853 43.584 211.793 45.6138C211.786 45.8619 211.797 46.2341 211.828 46.7303L212.801 59.5862C212.836 59.9245 212.844 60.3981 212.826 61.0071C212.728 64.3226 211.372 66.6682 208.759 68.044C206.168 69.4424 202.831 70.1416 198.746 70.1416L198.879 65.6758C204.903 65.6758 207.8 63.8715 207.568 60.2628L206.558 46.392C206.509 45.7379 206.493 45.1289 206.51 44.5651C206.578 42.2871 207.191 40.6068 208.352 39.5242C209.512 38.4416 211.361 37.7199 213.899 37.359C211.451 36.953 209.659 36.1524 208.521 34.957C207.405 33.7616 206.881 32.0475 206.947 29.8146C206.962 29.2959 207.012 28.7546 207.097 28.1907L208.929 14.3199C208.955 14.1846 208.972 13.9928 208.98 13.7447C209.031 12.0081 208.29 10.7676 206.755 10.0233C205.242 9.27901 203.177 8.90686 200.56 8.90686L200.692 4.44113Z" fill="#455A64"/>
<path d="M60.3823 41.1546C60.3823 45.1649 59.4592 47.9495 57.6131 49.5085C55.7772 51.0674 53.5105 51.8469 50.8131 51.8469H45.9516V30.6623H50.4746C52.3618 30.6623 54.0285 30.9495 55.4746 31.5238C56.9208 32.088 58.1003 33.1444 59.0131 34.6931C59.9259 36.2418 60.3823 38.3956 60.3823 41.1546ZM57.5362 41.1546C57.5362 38.8572 57.2233 37.0982 56.5977 35.8777C55.9721 34.6572 55.1926 33.8469 54.2592 33.4469C53.3362 33.0469 52.2849 32.8469 51.1054 32.8469H48.6131V49.7085H51.1362C52.9721 49.7085 54.4951 49.0828 55.7054 47.8315C56.9259 46.57 57.5362 44.3444 57.5362 41.1546ZM66.9624 44.6623C67.0035 45.8726 67.2394 46.8828 67.6701 47.6931C68.1009 48.4931 68.665 49.0879 69.3624 49.4777C70.0599 49.8572 70.8394 50.0469 71.7009 50.0469C72.5009 50.0469 73.2342 49.929 73.9009 49.6931C74.5778 49.4572 75.2855 49.0879 76.024 48.5854L77.2394 50.2931C76.4804 50.8879 75.6086 51.3546 74.624 51.6931C73.6496 52.0315 72.665 52.2008 71.6701 52.2008C70.1214 52.2008 68.7881 51.8521 67.6701 51.1546C66.5522 50.4572 65.7009 49.4726 65.1163 48.2008C64.5419 46.929 64.2547 45.4521 64.2547 43.77C64.2547 42.1392 64.547 40.6828 65.1317 39.4008C65.7163 38.1187 66.5419 37.1187 67.6086 36.4008C68.6753 35.6726 69.9163 35.3085 71.3317 35.3085C72.6855 35.3085 73.8547 35.6264 74.8394 36.2623C75.8342 36.8982 76.5932 37.8162 77.1163 39.0162C77.6496 40.2059 77.9163 41.6162 77.9163 43.2469C77.9163 43.7187 77.8958 44.1905 77.8547 44.6623H66.9624ZM71.3624 37.4315C70.1112 37.4315 69.0906 37.8726 68.3009 38.7546C67.5214 39.6264 67.0804 40.929 66.9778 42.6623H75.424C75.3932 40.9597 75.0188 39.6623 74.3009 38.77C73.5829 37.8777 72.6035 37.4315 71.3624 37.4315ZM94.2195 35.6469H96.8964L91.0041 51.8469H88.0041L82.1579 35.6469H84.8964L89.5887 49.4931L94.2195 35.6469Z" fill="#F7542E"/>
<path d="M115.353 45.8008C115.353 47.2572 114.979 48.4367 114.23 49.3392C113.482 50.2315 112.512 50.8726 111.323 51.2623C110.133 51.6521 108.83 51.8469 107.415 51.8469H101.723V30.6623H106.938C109.082 30.6623 110.866 31.0777 112.292 31.9085C113.718 32.729 114.43 34.0931 114.43 36.0008C114.43 37.2726 114.056 38.2982 113.307 39.0777C112.559 39.8572 111.62 40.3751 110.492 40.6315C113.733 41.1854 115.353 42.9085 115.353 45.8008ZM111.692 36.1392C111.692 33.9238 110.307 32.8162 107.538 32.8162H104.384V39.6777H107.8C109.082 39.6777 110.051 39.3956 110.707 38.8315C111.364 38.2572 111.692 37.3597 111.692 36.1392ZM112.538 45.8931C112.538 44.4059 112.128 43.3649 111.307 42.77C110.497 42.1751 109.394 41.8777 108 41.8777H104.384V49.6469H107.876C109.179 49.6469 110.282 49.3751 111.184 48.8315C112.087 48.2879 112.538 47.3085 112.538 45.8931ZM126.441 28.0623C127.005 28.0623 127.462 28.2367 127.81 28.5854C128.159 28.9238 128.334 29.3495 128.334 29.8623C128.334 30.3956 128.159 30.8367 127.81 31.1854C127.462 31.5341 127.005 31.7085 126.441 31.7085C125.898 31.7085 125.451 31.5341 125.103 31.1854C124.754 30.8264 124.58 30.3854 124.58 29.8623C124.58 29.3495 124.754 28.9238 125.103 28.5854C125.451 28.2367 125.898 28.0623 126.441 28.0623ZM121.072 35.6469H128.503V49.8008H133.072V51.8469H120.918V49.8008H125.918V37.6931H121.072V35.6469ZM145.067 47.8469C145.067 48.6059 145.303 49.1649 145.775 49.5238C146.257 49.8726 146.914 50.0469 147.744 50.0469C148.616 50.0469 149.524 49.8572 150.467 49.4777L151.16 51.37C150.667 51.6162 150.093 51.8162 149.437 51.97C148.78 52.1238 148.073 52.2008 147.314 52.2008C146.36 52.2008 145.514 52.0213 144.775 51.6623C144.047 51.3033 143.483 50.7854 143.083 50.1085C142.683 49.4315 142.483 48.6315 142.483 47.7085V31.17H137.514V29.1238H145.067V47.8469ZM163.525 47.8469C163.525 48.6059 163.76 49.1649 164.232 49.5238C164.714 49.8726 165.371 50.0469 166.201 50.0469C167.073 50.0469 167.981 49.8572 168.925 49.4777L169.617 51.37C169.125 51.6162 168.55 51.8162 167.894 51.97C167.237 52.1238 166.53 52.2008 165.771 52.2008C164.817 52.2008 163.971 52.0213 163.232 51.6623C162.504 51.3033 161.94 50.7854 161.54 50.1085C161.14 49.4315 160.94 48.6315 160.94 47.7085V31.17H155.971V29.1238H163.525V47.8469ZM183.458 51.9546C183.038 53.1649 182.535 54.211 181.951 55.0931C181.376 55.9751 180.617 56.7033 179.674 57.2777C178.741 57.8623 177.592 58.2213 176.228 58.3546L175.828 56.2931C176.915 56.1085 177.782 55.8315 178.428 55.4623C179.084 55.0931 179.597 54.6264 179.966 54.0623C180.335 53.4982 180.679 52.7597 180.997 51.8469H180.135L174.474 35.6469H177.243L181.889 49.8777L186.474 35.6469H189.151L183.458 51.9546Z" fill="#455A64"/>
</svg>
