<svg width="43" height="35" viewBox="0 0 43 35" fill="none" xmlns="http://www.w3.org/2000/svg">
<path d="M42.3877 4.08741C40.829 4.77813 39.1544 5.24483 37.394 5.45578C39.2104 4.36891 40.5694 2.65831 41.2173 0.64315C39.5107 1.65681 37.643 2.37031 35.6952 2.75264C34.3854 1.35415 32.6506 0.427209 30.76 0.115728C28.8694 -0.195753 26.9289 0.125655 25.2397 1.03005C23.5505 1.93445 22.2071 3.37123 21.4182 5.11734C20.6292 6.86344 20.4388 8.82117 20.8765 10.6866C17.4186 10.513 14.0358 9.61419 10.9478 8.0486C7.85967 6.48301 5.13529 4.28559 2.95142 1.59896C2.2047 2.88705 1.77533 4.3805 1.77533 5.97102C1.7745 7.40285 2.1271 8.81275 2.80185 10.0756C3.4766 11.3385 4.45264 12.4153 5.64336 13.2105C4.26244 13.1666 2.91198 12.7934 1.7044 12.1222V12.2342C1.70426 14.2424 2.39891 16.1888 3.67049 17.7431C4.94206 19.2974 6.71224 20.364 8.68066 20.7617C7.39962 21.1084 6.05656 21.1595 4.75289 20.9111C5.30826 22.639 6.39008 24.15 7.84688 25.2326C9.30368 26.3152 11.0626 26.9151 12.8772 26.9483C9.7967 29.3666 5.99224 30.6784 2.07589 30.6726C1.38215 30.6728 0.688995 30.6323 0 30.5513C3.97532 33.1073 8.60289 34.4638 13.329 34.4585C29.3276 34.4585 38.0736 21.2079 38.0736 9.71584C38.0736 9.34248 38.0642 8.96538 38.0474 8.59202C39.7486 7.36174 41.2171 5.83828 42.384 4.09301L42.3877 4.08741V4.08741Z" fill="white"/>
</svg>
